<?xml version="1.0" standalone="no"?><!DOCTYPE svg PUBLIC "-//W3C//DTD SVG 1.1//EN" "http://www.w3.org/Graphics/SVG/1.1/DTD/svg11.dtd"><svg t="1729666873092" class="icon" viewBox="0 0 1024 1024" version="1.1" xmlns="http://www.w3.org/2000/svg" p-id="4468" width="81" height="81" xmlns:xlink="http://www.w3.org/1999/xlink"><path d="M162.909091 449.163636h681.890909c34.909091 0 65.163636-20.945455 76.8-51.2s6.981818-67.490909-16.290909-93.090909l-146.618182-153.6c-27.927273-27.927273-69.818182-27.927273-97.745454-2.327272-27.927273 25.6-27.927273 69.818182-2.327273 97.745454l58.181818 60.509091H162.909091c-39.563636 0-69.818182 30.254545-69.818182 69.818182s32.581818 72.145455 69.818182 72.145454zM861.090909 574.836364H179.2c-34.909091 0-65.163636 20.945455-76.8 51.2s-6.981818 67.490909 16.290909 93.090909l146.618182 153.6c13.963636 13.963636 32.581818 20.945455 51.2 20.945454 16.290909 0 34.909091-6.981818 48.872727-18.618182 27.927273-25.6 27.927273-69.818182 2.327273-97.745454l-58.181818-60.509091H861.090909c39.563636 0 69.818182-30.254545 69.818182-69.818182s-32.581818-72.145455-69.818182-72.145454z" p-id="4469"></path></svg>